<svg width="48" height="48" viewBox="0 0 48 48" fill="none" xmlns="http://www.w3.org/2000/svg">
<path d="M44 18V14H34V4H30V14H26V4H22V14H18V4H14V14H4V18H14V22H4V26H14V30H4V34H14V44H18V34H22V44H26V34H30V44H34V34H44V30H34V26H44V22H34V18H44Z" fill="#FF9800"/>
<path d="M8 12V36C8 38.2 9.8 40 12 40H36C38.2 40 40 38.2 40 36V12C40 9.8 38.2 8 36 8H12C9.8 8 8 9.8 8 12Z" fill="#4CAF50"/>
<path d="M31 31H17C15.9 31 15 30.1 15 29V19C15 17.9 15.9 17 17 17H31C32.1 17 33 17.9 33 19V29C33 30.1 32.1 31 31 31Z" fill="#37474F"/>
</svg>
